<svg width="65" height="65" viewBox="0 0 65 65" fill="none" xmlns="http://www.w3.org/2000/svg">
<rect width="65" height="65" rx="10" fill="#404040" fill-opacity="0.5"/>
<path d="M53 33C53 44.0457 44.0457 53 33 53C21.9543 53 13 44.0457 13 33C13 21.9543 21.9543 13 33 13C44.0457 13 53 21.9543 53 33Z" fill="#82E1FF"/>
<path d="M50.5 33C50.5 42.665 42.665 50.5 33 50.5C23.335 50.5 15.5 42.665 15.5 33C15.5 23.335 23.335 15.5 33 15.5C42.665 15.5 50.5 23.335 50.5 33Z" fill="#14C2F9"/>
<path d="M48 33C48 41.2843 41.2843 48 33 48C24.7157 48 18 41.2843 18 33C18 24.7157 24.7157 18 33 18C41.2843 18 48 24.7157 48 33Z" fill="#0075FF"/>
<path d="M45.5 33C45.5 39.9036 39.9036 45.5 33 45.5C26.0964 45.5 20.5 39.9036 20.5 33C20.5 26.0964 26.0964 20.5 33 20.5C39.9036 20.5 45.5 26.0964 45.5 33Z" fill="#0038FF"/>
<path d="M43 33C43 38.5228 38.5228 43 33 43C27.4772 43 23 38.5228 23 33C23 27.4772 27.4772 23 33 23C38.5228 23 43 27.4772 43 33Z" fill="#0215BE"/>
</svg>
