<svg width="1079" height="400" viewBox="0 0 1079 400" fill="none" xmlns="http://www.w3.org/2000/svg">
<circle cx="200" cy="200" r="200" fill="#82E1FF"/>
<circle cx="200" cy="200" r="200" fill="#82E1FF"/>
<circle cx="200" cy="200" r="175" fill="#14C2F9"/>
<circle cx="200" cy="200" r="175" fill="#14C2F9"/>
<circle cx="200" cy="200" r="150" fill="#0075FF"/>
<circle cx="200" cy="200" r="125" fill="#0038FF"/>
<circle cx="200" cy="200" r="100" fill="#0215BE"/>
<path d="M532 296.5C519.5 296.5 507.917 294.25 497.25 289.75C486.583 285.25 477.25 279 469.25 271C461.417 262.833 455.333 253.25 451 242.25C446.667 231.25 444.5 219.25 444.5 206.25C444.5 193.25 446.667 181.25 451 170.25C455.333 159.25 461.417 149.75 469.25 141.75C477.25 133.583 486.583 127.25 497.25 122.75C507.917 118.25 519.5 116 532 116C544.667 116 556.333 118.25 567 122.75C577.667 127.25 586.917 133.583 594.75 141.75C602.583 149.917 608.667 159.5 613 170.5C617.333 181.333 619.5 193.25 619.5 206.25C619.5 219.083 617.333 231 613 242C608.667 253 602.583 262.583 594.75 270.75C586.917 278.917 577.667 285.25 567 289.75C556.333 294.25 544.667 296.5 532 296.5ZM532 265.5C540 265.5 547.25 264.083 553.75 261.25C560.417 258.25 566.167 254.083 571 248.75C575.833 243.25 579.583 236.917 582.25 229.75C585.083 222.583 586.5 214.75 586.5 206.25C586.5 197.75 585.083 189.917 582.25 182.75C579.583 175.583 575.833 169.333 571 164C566.167 158.5 560.417 154.333 553.75 151.5C547.25 148.5 540 147 532 147C524.167 147 516.917 148.5 510.25 151.5C503.583 154.333 497.833 158.417 493 163.75C488.167 169.083 484.417 175.333 481.75 182.5C479.083 189.667 477.75 197.583 477.75 206.25C477.75 214.75 479.083 222.667 481.75 230C484.417 237.167 488.167 243.417 493 248.75C497.833 254.083 503.583 258.25 510.25 261.25C516.917 264.083 524.167 265.5 532 265.5ZM649.242 294V162.25H679.492L679.992 204.25L675.742 194.75C677.576 188.083 680.742 182.083 685.242 176.75C689.742 171.417 694.909 167.25 700.742 164.25C706.742 161.083 712.992 159.5 719.492 159.5C722.326 159.5 724.992 159.75 727.492 160.25C730.159 160.75 732.326 161.333 733.992 162L725.742 195.75C723.909 194.75 721.659 193.917 718.992 193.25C716.326 192.583 713.659 192.25 710.992 192.25C706.826 192.25 702.826 193.083 698.992 194.75C695.326 196.25 692.076 198.417 689.242 201.25C686.409 204.083 684.159 207.417 682.492 211.25C680.992 214.917 680.242 219.083 680.242 223.75V294H649.242ZM827.217 296.5C821.383 296.5 815.633 295.667 809.967 294C804.467 292.167 799.467 289.75 794.967 286.75C790.467 283.75 786.717 280.417 783.717 276.75C780.717 272.917 778.717 269.083 777.717 265.25L784.967 262L784.217 293.5H754.467V109H785.217V192.75L779.717 190.25C780.55 186.25 782.383 182.5 785.217 179C788.217 175.333 791.883 172.083 796.217 169.25C800.55 166.25 805.3 163.917 810.467 162.25C815.633 160.417 820.883 159.5 826.217 159.5C838.05 159.5 848.467 162.417 857.467 168.25C866.633 174.083 873.8 182.167 878.967 192.5C884.3 202.833 886.967 214.583 886.967 227.75C886.967 241.083 884.383 252.917 879.217 263.25C874.05 273.583 866.883 281.75 857.717 287.75C848.717 293.583 838.55 296.5 827.217 296.5ZM820.717 269.5C827.717 269.5 833.967 267.75 839.467 264.25C844.967 260.583 849.3 255.667 852.467 249.5C855.633 243.167 857.217 235.917 857.217 227.75C857.217 219.75 855.633 212.667 852.467 206.5C849.467 200.333 845.217 195.5 839.717 192C834.217 188.5 827.883 186.75 820.717 186.75C813.55 186.75 807.217 188.5 801.717 192C796.217 195.5 791.883 200.333 788.717 206.5C785.55 212.667 783.967 219.75 783.967 227.75C783.967 235.917 785.55 243.167 788.717 249.5C791.883 255.667 796.217 260.583 801.717 264.25C807.217 267.75 813.55 269.5 820.717 269.5ZM917.879 294V162.25H948.629V294H917.879ZM932.879 134.25C926.712 134.25 921.879 132.75 918.379 129.75C915.046 126.583 913.379 122.167 913.379 116.5C913.379 111.167 915.129 106.833 918.629 103.5C922.129 100.167 926.879 98.5 932.879 98.5C939.212 98.5 944.046 100.083 947.379 103.25C950.879 106.25 952.629 110.667 952.629 116.5C952.629 121.667 950.879 125.917 947.379 129.25C943.879 132.583 939.046 134.25 932.879 134.25ZM1001.87 294V128.75H1032.62V294H1001.87ZM975.871 190.75V162.25H1061.37V190.75H975.871Z" fill="white"/>
</svg>
