<svg width="530" height="530" viewBox="0 0 530 530" fill="none" xmlns="http://www.w3.org/2000/svg">
<path d="M530 265C530 411.355 411.355 530 265 530C118.645 530 0 411.355 0 265C0 118.645 118.645 0 265 0C411.355 0 530 118.645 530 265Z" fill="#82E1FF"/>
<path d="M496.875 265C496.875 393.061 393.061 496.875 265 496.875C136.939 496.875 33.125 393.061 33.125 265C33.125 136.939 136.939 33.125 265 33.125C393.061 33.125 496.875 136.939 496.875 265Z" fill="#14C2F9"/>
<path d="M463.75 265C463.75 374.767 374.767 463.75 265 463.75C155.233 463.75 66.25 374.767 66.25 265C66.25 155.233 155.233 66.25 265 66.25C374.767 66.25 463.75 155.233 463.75 265Z" fill="#0075FF"/>
<path d="M430.625 265C430.625 356.472 356.472 430.625 265 430.625C173.528 430.625 99.375 356.472 99.375 265C99.375 173.528 173.528 99.375 265 99.375C356.472 99.375 430.625 173.528 430.625 265Z" fill="#0038FF"/>
<path d="M397.5 265C397.5 338.178 338.178 397.5 265 397.5C191.822 397.5 132.5 338.178 132.5 265C132.5 191.822 191.822 132.5 265 132.5C338.178 132.5 397.5 191.822 397.5 265Z" fill="#0215BE"/>
</svg>
