<svg width="1458" height="530" viewBox="0 0 1458 530" fill="none" xmlns="http://www.w3.org/2000/svg">
<g clip-path="url(#clip0_2090_13)">
<path d="M530 265C530 411.355 411.355 530 265 530C118.645 530 0 411.355 0 265C0 118.645 118.645 0 265 0C411.355 0 530 118.645 530 265Z" fill="#82E1FF"/>
<path d="M496.875 265C496.875 393.061 393.061 496.875 265 496.875C136.939 496.875 33.125 393.061 33.125 265C33.125 136.939 136.939 33.125 265 33.125C393.061 33.125 496.875 136.939 496.875 265Z" fill="#14C2F9"/>
<path d="M463.75 265C463.75 374.767 374.767 463.75 265 463.75C155.233 463.75 66.25 374.767 66.25 265C66.25 155.233 155.233 66.25 265 66.25C374.767 66.25 463.75 155.233 463.75 265Z" fill="#0075FF"/>
<path d="M430.625 265C430.625 356.472 356.472 430.625 265 430.625C173.528 430.625 99.375 356.472 99.375 265C99.375 173.528 173.528 99.375 265 99.375C356.472 99.375 430.625 173.528 430.625 265Z" fill="#0038FF"/>
<path d="M397.5 265C397.5 338.178 338.178 397.5 265 397.5C191.822 397.5 132.5 338.178 132.5 265C132.5 191.822 191.822 132.5 265 132.5C338.178 132.5 397.5 191.822 397.5 265Z" fill="#0215BE"/>
<path d="M708.948 400.5C691.448 400.5 675.231 397.35 660.298 391.05C645.364 384.75 632.298 376 621.098 364.8C610.131 353.367 601.614 339.95 595.548 324.55C589.481 309.15 586.448 292.35 586.448 274.15C586.448 255.95 589.481 239.15 595.548 223.75C601.614 208.35 610.131 195.05 621.098 183.85C632.298 172.417 645.364 163.55 660.298 157.25C675.231 150.95 691.448 147.8 708.948 147.8C726.681 147.8 743.014 150.95 757.948 157.25C772.881 163.55 785.831 172.417 796.798 183.85C807.764 195.283 816.281 208.7 822.348 224.1C828.414 239.267 831.448 255.95 831.448 274.15C831.448 292.117 828.414 308.8 822.348 324.2C816.281 339.6 807.764 353.017 796.798 364.45C785.831 375.883 772.881 384.75 757.948 391.05C743.014 397.35 726.681 400.5 708.948 400.5ZM708.948 357.1C720.148 357.1 730.298 355.117 739.398 351.15C748.731 346.95 756.781 341.117 763.548 333.65C770.314 325.95 775.564 317.083 779.298 307.05C783.264 297.017 785.248 286.05 785.248 274.15C785.248 262.25 783.264 251.283 779.298 241.25C775.564 231.217 770.314 222.467 763.548 215C756.781 207.3 748.731 201.467 739.398 197.5C730.298 193.3 720.148 191.2 708.948 191.2C697.981 191.2 687.831 193.3 678.498 197.5C669.164 201.467 661.114 207.183 654.348 214.65C647.581 222.117 642.331 230.867 638.598 240.9C634.864 250.933 632.998 262.017 632.998 274.15C632.998 286.05 634.864 297.133 638.598 307.4C642.331 317.433 647.581 326.183 654.348 333.65C661.114 341.117 669.164 346.95 678.498 351.15C687.831 355.117 697.981 357.1 708.948 357.1ZM873.087 397V212.55H915.437L916.137 271.35L910.187 258.05C912.753 248.717 917.187 240.317 923.487 232.85C929.787 225.383 937.02 219.55 945.187 215.35C953.587 210.917 962.337 208.7 971.437 208.7C975.403 208.7 979.137 209.05 982.637 209.75C986.37 210.45 989.403 211.267 991.737 212.2L980.187 259.45C977.62 258.05 974.47 256.883 970.737 255.95C967.003 255.017 963.27 254.55 959.537 254.55C953.703 254.55 948.103 255.717 942.737 258.05C937.603 260.15 933.053 263.183 929.087 267.15C925.12 271.117 921.97 275.783 919.637 281.15C917.537 286.283 916.487 292.117 916.487 298.65V397H873.087ZM1122.25 400.5C1114.08 400.5 1106.03 399.333 1098.1 397C1090.4 394.433 1083.4 391.05 1077.1 386.85C1070.8 382.65 1065.55 377.983 1061.35 372.85C1057.15 367.483 1054.35 362.117 1052.95 356.75L1063.1 352.2L1062.05 396.3H1020.4V138H1063.45V255.25L1055.75 251.75C1056.92 246.15 1059.48 240.9 1063.45 236C1067.65 230.867 1072.78 226.317 1078.85 222.35C1084.92 218.15 1091.57 214.883 1098.8 212.55C1106.03 209.983 1113.38 208.7 1120.85 208.7C1137.42 208.7 1152 212.783 1164.6 220.95C1177.43 229.117 1187.47 240.433 1194.7 254.9C1202.17 269.367 1205.9 285.817 1205.9 304.25C1205.9 322.917 1202.28 339.483 1195.05 353.95C1187.82 368.417 1177.78 379.85 1164.95 388.25C1152.35 396.417 1138.12 400.5 1122.25 400.5ZM1113.15 362.7C1122.95 362.7 1131.7 360.25 1139.4 355.35C1147.1 350.217 1153.17 343.333 1157.6 334.7C1162.03 325.833 1164.25 315.683 1164.25 304.25C1164.25 293.05 1162.03 283.133 1157.6 274.5C1153.4 265.867 1147.45 259.1 1139.75 254.2C1132.05 249.3 1123.18 246.85 1113.15 246.85C1103.12 246.85 1094.25 249.3 1086.55 254.2C1078.85 259.1 1072.78 265.867 1068.35 274.5C1063.92 283.133 1061.7 293.05 1061.7 304.25C1061.7 315.683 1063.92 325.833 1068.35 334.7C1072.78 343.333 1078.85 350.217 1086.55 355.35C1094.25 360.25 1103.12 362.7 1113.15 362.7ZM1249.18 397V212.55H1292.23V397H1249.18ZM1270.18 173.35C1261.54 173.35 1254.78 171.25 1249.88 167.05C1245.21 162.617 1242.88 156.433 1242.88 148.5C1242.88 141.033 1245.33 134.967 1250.23 130.3C1255.13 125.633 1261.78 123.3 1270.18 123.3C1279.04 123.3 1285.81 125.517 1290.48 129.95C1295.38 134.15 1297.83 140.333 1297.83 148.5C1297.83 155.733 1295.38 161.683 1290.48 166.35C1285.58 171.017 1278.81 173.35 1270.18 173.35ZM1366.77 397V165.65H1409.82V397H1366.77ZM1330.37 252.45V212.55H1450.07V252.45H1330.37Z" fill="black"/>
</g>
<defs>
<clipPath id="clip0_2090_13">
<rect width="1458" height="530" fill="white"/>
</clipPath>
</defs>
</svg>
